{
    "asset" : {
        "generator" : "Khronos glTF Blender I/O v3.2.43",
        "version" : "2.0"
    },
    "scene" : 0,
    "scenes" : [
        {
            "name" : "Scene",
            "nodes" : [
                0
            ]
        }
    ],
    "nodes" : [
        {
            "mesh" : 0,
            "name" : "left"
        }
    ],
    "meshes" : [
        {
            "name" : "left",
            "primitives" : [
                {
                    "attributes" : {
                        "POSITION" : 0,
                        "NORMAL" : 1
                    },
                    "indices" : 2
                }
            ]
        }
    ],
    "accessors" : [
        {
            "bufferView" : 0,
            "componentType" : 5126,
            "count" : 15085,
            "max" : [
                0.04196299985051155,
                0.1422799974679947,
                -5.700000110664405e-05
            ],
            "min" : [
                -0.061694998294115067,
                0,
                -0.2884089946746826
            ],
            "type" : "VEC3"
        },
        {
            "bufferView" : 1,
            "componentType" : 5126,
            "count" : 15085,
            "type" : "VEC3"
        },
        {
            "bufferView" : 2,
            "componentType" : 5123,
            "count" : 15168,
            "type" : "SCALAR"
        }
    ],
    "bufferViews" : [
        {
            "buffer" : 0,
            "byteLength" : 181020,
            "byteOffset" : 0
        },
        {
            "buffer" : 0,
            "byteLength" : 181020,
            "byteOffset" : 181020
        },
        {
            "buffer" : 0,
            "byteLength" : 30336,
            "byteOffset" : 362040
        }
    ],
    "buffers" : [
        {
            "byteLength" : 392376,
            "uri" : "data:application/octet-stream;base64,"
        }
    ]
}
